<svg width="99" height="14" viewBox="0 0 99 14" fill="none" xmlns="http://www.w3.org/2000/svg">
<rect x="1" y="1" width="97" height="12" rx="2" fill="#363230" stroke="#ECDDDD" stroke-width="0.7"/>
<path d="M6.52539 5.10645L4.5918 11H3.03418L5.67578 3.89062H6.66699L6.52539 5.10645ZM8.13184 11L6.19336 5.10645L6.03711 3.89062H7.03809L9.69434 11H8.13184ZM8.04395 8.35352V9.50098H4.28906V8.35352H8.04395ZM11.4863 6.84473V11H10.0801V5.7168H11.3984L11.4863 6.84473ZM11.2812 8.17285H10.9004C10.9004 7.78223 10.9508 7.43066 11.0518 7.11816C11.1527 6.80241 11.2943 6.53385 11.4766 6.3125C11.6589 6.08789 11.8753 5.91699 12.126 5.7998C12.3799 5.67936 12.6631 5.61914 12.9756 5.61914C13.223 5.61914 13.4492 5.65495 13.6543 5.72656C13.8594 5.79818 14.0352 5.91211 14.1816 6.06836C14.3314 6.22461 14.4453 6.43132 14.5234 6.68848C14.6048 6.94564 14.6455 7.25977 14.6455 7.63086V11H13.2295V7.62598C13.2295 7.3916 13.1969 7.20931 13.1318 7.0791C13.0667 6.94889 12.9707 6.85775 12.8438 6.80566C12.7201 6.75033 12.5671 6.72266 12.3848 6.72266C12.196 6.72266 12.0316 6.76009 11.8916 6.83496C11.7549 6.90983 11.641 7.014 11.5498 7.14746C11.4619 7.27767 11.3952 7.43066 11.3496 7.60645C11.304 7.78223 11.2812 7.97103 11.2812 8.17285ZM18.8398 9.73535V5.7168H20.2461V11H18.9229L18.8398 9.73535ZM18.9961 8.65137L19.4111 8.6416C19.4111 8.99316 19.3704 9.32031 19.2891 9.62305C19.2077 9.92253 19.0856 10.1829 18.9229 10.4043C18.7601 10.6224 18.555 10.7933 18.3076 10.917C18.0602 11.0374 17.7689 11.0977 17.4336 11.0977C17.1764 11.0977 16.9388 11.0618 16.7207 10.9902C16.5059 10.9154 16.3203 10.7998 16.1641 10.6436C16.0111 10.484 15.8906 10.2806 15.8027 10.0332C15.7181 9.78255 15.6758 9.48145 15.6758 9.12988V5.7168H17.082V9.13965C17.082 9.2959 17.0999 9.42773 17.1357 9.53516C17.1748 9.64258 17.2285 9.73047 17.2969 9.79883C17.3652 9.86719 17.445 9.91602 17.5361 9.94531C17.6305 9.97461 17.7347 9.98926 17.8486 9.98926C18.1383 9.98926 18.3662 9.93066 18.5322 9.81348C18.7015 9.69629 18.8203 9.53678 18.8887 9.33496C18.9603 9.12988 18.9961 8.90202 18.9961 8.65137ZM22.6973 6.84473V11H21.291V5.7168H22.6094L22.6973 6.84473ZM22.4922 8.17285H22.1113C22.1113 7.78223 22.1618 7.43066 22.2627 7.11816C22.3636 6.80241 22.5052 6.53385 22.6875 6.3125C22.8698 6.08789 23.0863 5.91699 23.3369 5.7998C23.5908 5.67936 23.874 5.61914 24.1865 5.61914C24.4339 5.61914 24.6602 5.65495 24.8652 5.72656C25.0703 5.79818 25.2461 5.91211 25.3926 6.06836C25.5423 6.22461 25.6562 6.43132 25.7344 6.68848C25.8158 6.94564 25.8564 7.25977 25.8564 7.63086V11H24.4404V7.62598C24.4404 7.3916 24.4079 7.20931 24.3428 7.0791C24.2777 6.94889 24.1816 6.85775 24.0547 6.80566C23.931 6.75033 23.778 6.72266 23.5957 6.72266C23.4069 6.72266 23.2425 6.76009 23.1025 6.83496C22.9658 6.90983 22.8519 7.014 22.7607 7.14746C22.6729 7.27767 22.6061 7.43066 22.5605 7.60645C22.515 7.78223 22.4922 7.97103 22.4922 8.17285ZM29.1084 9.99902C29.2809 9.99902 29.4339 9.96647 29.5674 9.90137C29.7008 9.83301 29.805 9.73861 29.8799 9.61816C29.958 9.49447 29.9987 9.34961 30.002 9.18359H31.3252C31.3219 9.55469 31.2227 9.88509 31.0273 10.1748C30.832 10.4613 30.57 10.6875 30.2412 10.8535C29.9124 11.0163 29.5446 11.0977 29.1377 11.0977C28.7275 11.0977 28.3695 11.0293 28.0635 10.8926C27.7607 10.7559 27.5085 10.5671 27.3066 10.3262C27.1048 10.082 26.9535 9.79883 26.8525 9.47656C26.7516 9.15104 26.7012 8.80273 26.7012 8.43164V8.29004C26.7012 7.91569 26.7516 7.56738 26.8525 7.24512C26.9535 6.9196 27.1048 6.63639 27.3066 6.39551C27.5085 6.15137 27.7607 5.96094 28.0635 5.82422C28.3662 5.6875 28.721 5.61914 29.1279 5.61914C29.5609 5.61914 29.9401 5.70215 30.2656 5.86816C30.5944 6.03418 30.8516 6.27181 31.0371 6.58105C31.2259 6.88704 31.3219 7.25 31.3252 7.66992H30.002C29.9987 7.49414 29.9613 7.33464 29.8896 7.19141C29.8213 7.04818 29.7204 6.93424 29.5869 6.84961C29.4567 6.76172 29.2956 6.71777 29.1035 6.71777C28.8984 6.71777 28.7308 6.76172 28.6006 6.84961C28.4704 6.93424 28.3695 7.05143 28.2979 7.20117C28.2262 7.34766 28.1758 7.5153 28.1465 7.7041C28.1204 7.88965 28.1074 8.08496 28.1074 8.29004V8.43164C28.1074 8.63672 28.1204 8.83366 28.1465 9.02246C28.1725 9.21126 28.2214 9.37891 28.293 9.52539C28.3678 9.67188 28.4704 9.78743 28.6006 9.87207C28.7308 9.95671 28.9001 9.99902 29.1084 9.99902ZM33.625 5.7168V11H32.2139V5.7168H33.625ZM32.126 4.33984C32.126 4.13477 32.1976 3.96549 32.3408 3.83203C32.484 3.69857 32.6761 3.63184 32.917 3.63184C33.1546 3.63184 33.3451 3.69857 33.4883 3.83203C33.6348 3.96549 33.708 4.13477 33.708 4.33984C33.708 4.54492 33.6348 4.71419 33.4883 4.84766C33.3451 4.98112 33.1546 5.04785 32.917 5.04785C32.6761 5.04785 32.484 4.98112 32.3408 4.84766C32.1976 4.71419 32.126 4.54492 32.126 4.33984ZM37.2188 11.0977C36.8086 11.0977 36.4408 11.0326 36.1152 10.9023C35.7897 10.7689 35.513 10.585 35.2852 10.3506C35.0605 10.1162 34.888 9.8444 34.7676 9.53516C34.6471 9.22266 34.5869 8.89062 34.5869 8.53906V8.34375C34.5869 7.94336 34.6439 7.57715 34.7578 7.24512C34.8717 6.91309 35.0345 6.625 35.2461 6.38086C35.4609 6.13672 35.7214 5.94954 36.0273 5.81934C36.3333 5.68587 36.6784 5.61914 37.0625 5.61914C37.4368 5.61914 37.7689 5.68099 38.0586 5.80469C38.3483 5.92839 38.5908 6.10417 38.7861 6.33203C38.9847 6.5599 39.1344 6.83333 39.2354 7.15234C39.3363 7.4681 39.3867 7.81966 39.3867 8.20703V8.79297H35.1875V7.85547H38.0049V7.74805C38.0049 7.55273 37.9691 7.37858 37.8975 7.22559C37.8291 7.06934 37.7249 6.94564 37.585 6.85449C37.445 6.76335 37.266 6.71777 37.0479 6.71777C36.8623 6.71777 36.7028 6.75846 36.5693 6.83984C36.4359 6.92122 36.3268 7.03516 36.2422 7.18164C36.1608 7.32812 36.099 7.50065 36.0566 7.69922C36.0176 7.89453 35.998 8.10938 35.998 8.34375V8.53906C35.998 8.75065 36.0273 8.94596 36.0859 9.125C36.1478 9.30404 36.234 9.45866 36.3447 9.58887C36.4587 9.71908 36.5954 9.81999 36.7549 9.8916C36.9176 9.96322 37.1016 9.99902 37.3066 9.99902C37.5605 9.99902 37.7965 9.9502 38.0146 9.85254C38.236 9.75163 38.4264 9.60026 38.5859 9.39844L39.2695 10.1406C39.1589 10.3001 39.0075 10.4531 38.8154 10.5996C38.6266 10.7461 38.3988 10.8665 38.1318 10.9609C37.8649 11.0521 37.5605 11.0977 37.2188 11.0977ZM44.8604 9.99902C45.0329 9.99902 45.1859 9.96647 45.3193 9.90137C45.4528 9.83301 45.557 9.73861 45.6318 9.61816C45.71 9.49447 45.7507 9.34961 45.7539 9.18359H47.0771C47.0739 9.55469 46.9746 9.88509 46.7793 10.1748C46.584 10.4613 46.3219 10.6875 45.9932 10.8535C45.6644 11.0163 45.2965 11.0977 44.8896 11.0977C44.4795 11.0977 44.1214 11.0293 43.8154 10.8926C43.5127 10.7559 43.2604 10.5671 43.0586 10.3262C42.8568 10.082 42.7054 9.79883 42.6045 9.47656C42.5036 9.15104 42.4531 8.80273 42.4531 8.43164V8.29004C42.4531 7.91569 42.5036 7.56738 42.6045 7.24512C42.7054 6.9196 42.8568 6.63639 43.0586 6.39551C43.2604 6.15137 43.5127 5.96094 43.8154 5.82422C44.1182 5.6875 44.473 5.61914 44.8799 5.61914C45.3128 5.61914 45.6921 5.70215 46.0176 5.86816C46.3464 6.03418 46.6035 6.27181 46.7891 6.58105C46.9779 6.88704 47.0739 7.25 47.0771 7.66992H45.7539C45.7507 7.49414 45.7132 7.33464 45.6416 7.19141C45.5732 7.04818 45.4723 6.93424 45.3389 6.84961C45.2087 6.76172 45.0475 6.71777 44.8555 6.71777C44.6504 6.71777 44.4827 6.76172 44.3525 6.84961C44.2223 6.93424 44.1214 7.05143 44.0498 7.20117C43.9782 7.34766 43.9277 7.5153 43.8984 7.7041C43.8724 7.88965 43.8594 8.08496 43.8594 8.29004V8.43164C43.8594 8.63672 43.8724 8.83366 43.8984 9.02246C43.9245 9.21126 43.9733 9.37891 44.0449 9.52539C44.1198 9.67188 44.2223 9.78743 44.3525 9.87207C44.4827 9.95671 44.652 9.99902 44.8604 9.99902ZM47.668 8.41211V8.30957C47.668 7.9222 47.7233 7.56576 47.834 7.24023C47.9447 6.91146 48.1058 6.62663 48.3174 6.38574C48.529 6.14486 48.7894 5.95768 49.0986 5.82422C49.4079 5.6875 49.7627 5.61914 50.1631 5.61914C50.5635 5.61914 50.9199 5.6875 51.2324 5.82422C51.5449 5.95768 51.807 6.14486 52.0186 6.38574C52.2334 6.62663 52.3962 6.91146 52.5068 7.24023C52.6175 7.56576 52.6729 7.9222 52.6729 8.30957V8.41211C52.6729 8.79622 52.6175 9.15267 52.5068 9.48145C52.3962 9.80697 52.2334 10.0918 52.0186 10.3359C51.807 10.5768 51.5465 10.764 51.2373 10.8975C50.9281 11.0309 50.5732 11.0977 50.1729 11.0977C49.7725 11.0977 49.416 11.0309 49.1035 10.8975C48.7943 10.764 48.5322 10.5768 48.3174 10.3359C48.1058 10.0918 47.9447 9.80697 47.834 9.48145C47.7233 9.15267 47.668 8.79622 47.668 8.41211ZM49.0742 8.30957V8.41211C49.0742 8.63346 49.0938 8.84017 49.1328 9.03223C49.1719 9.22428 49.2337 9.39355 49.3184 9.54004C49.4062 9.68327 49.5202 9.79557 49.6602 9.87695C49.8001 9.95833 49.971 9.99902 50.1729 9.99902C50.3682 9.99902 50.5358 9.95833 50.6758 9.87695C50.8158 9.79557 50.9281 9.68327 51.0127 9.54004C51.0973 9.39355 51.1592 9.22428 51.1982 9.03223C51.2406 8.84017 51.2617 8.63346 51.2617 8.41211V8.30957C51.2617 8.09473 51.2406 7.8929 51.1982 7.7041C51.1592 7.51204 51.0957 7.34277 51.0078 7.19629C50.9232 7.04655 50.8109 6.92936 50.6709 6.84473C50.5309 6.76009 50.3617 6.71777 50.1631 6.71777C49.9645 6.71777 49.7952 6.76009 49.6553 6.84473C49.5186 6.92936 49.4062 7.04655 49.3184 7.19629C49.2337 7.34277 49.1719 7.51204 49.1328 7.7041C49.0938 7.8929 49.0742 8.09473 49.0742 8.30957ZM54.9141 6.84473V11H53.5078V5.7168H54.8262L54.9141 6.84473ZM54.709 8.17285H54.3281C54.3281 7.78223 54.3786 7.43066 54.4795 7.11816C54.5804 6.80241 54.722 6.53385 54.9043 6.3125C55.0866 6.08789 55.3031 5.91699 55.5537 5.7998C55.8076 5.67936 56.0908 5.61914 56.4033 5.61914C56.6507 5.61914 56.877 5.65495 57.082 5.72656C57.2871 5.79818 57.4629 5.91211 57.6094 6.06836C57.7591 6.22461 57.873 6.43132 57.9512 6.68848C58.0326 6.94564 58.0732 7.25977 58.0732 7.63086V11H56.6572V7.62598C56.6572 7.3916 56.6247 7.20931 56.5596 7.0791C56.4945 6.94889 56.3984 6.85775 56.2715 6.80566C56.1478 6.75033 55.9948 6.72266 55.8125 6.72266C55.6237 6.72266 55.4593 6.76009 55.3193 6.83496C55.1826 6.90983 55.0687 7.014 54.9775 7.14746C54.8896 7.27767 54.8229 7.43066 54.7773 7.60645C54.7318 7.78223 54.709 7.97103 54.709 8.17285ZM58.918 8.41211V8.30957C58.918 7.9222 58.9733 7.56576 59.084 7.24023C59.1947 6.91146 59.3558 6.62663 59.5674 6.38574C59.779 6.14486 60.0394 5.95768 60.3486 5.82422C60.6579 5.6875 61.0127 5.61914 61.4131 5.61914C61.8135 5.61914 62.1699 5.6875 62.4824 5.82422C62.7949 5.95768 63.057 6.14486 63.2686 6.38574C63.4834 6.62663 63.6462 6.91146 63.7568 7.24023C63.8675 7.56576 63.9229 7.9222 63.9229 8.30957V8.41211C63.9229 8.79622 63.8675 9.15267 63.7568 9.48145C63.6462 9.80697 63.4834 10.0918 63.2686 10.3359C63.057 10.5768 62.7965 10.764 62.4873 10.8975C62.1781 11.0309 61.8232 11.0977 61.4229 11.0977C61.0225 11.0977 60.666 11.0309 60.3535 10.8975C60.0443 10.764 59.7822 10.5768 59.5674 10.3359C59.3558 10.0918 59.1947 9.80697 59.084 9.48145C58.9733 9.15267 58.918 8.79622 58.918 8.41211ZM60.3242 8.30957V8.41211C60.3242 8.63346 60.3438 8.84017 60.3828 9.03223C60.4219 9.22428 60.4837 9.39355 60.5684 9.54004C60.6562 9.68327 60.7702 9.79557 60.9102 9.87695C61.0501 9.95833 61.221 9.99902 61.4229 9.99902C61.6182 9.99902 61.7858 9.95833 61.9258 9.87695C62.0658 9.79557 62.1781 9.68327 62.2627 9.54004C62.3473 9.39355 62.4092 9.22428 62.4482 9.03223C62.4906 8.84017 62.5117 8.63346 62.5117 8.41211V8.30957C62.5117 8.09473 62.4906 7.8929 62.4482 7.7041C62.4092 7.51204 62.3457 7.34277 62.2578 7.19629C62.1732 7.04655 62.0609 6.92936 61.9209 6.84473C61.7809 6.76009 61.6117 6.71777 61.4131 6.71777C61.2145 6.71777 61.0452 6.76009 60.9053 6.84473C60.7686 6.92936 60.6562 7.04655 60.5684 7.19629C60.4837 7.34277 60.4219 7.51204 60.3828 7.7041C60.3438 7.8929 60.3242 8.09473 60.3242 8.30957ZM67.6436 9.54004C67.6436 9.43913 67.6143 9.34798 67.5557 9.2666C67.4971 9.18522 67.388 9.11035 67.2285 9.04199C67.0723 8.97038 66.846 8.90527 66.5498 8.84668C66.2829 8.78809 66.0339 8.71484 65.8027 8.62695C65.5749 8.53581 65.3763 8.42676 65.207 8.2998C65.041 8.17285 64.9108 8.02311 64.8164 7.85059C64.722 7.6748 64.6748 7.47461 64.6748 7.25C64.6748 7.02865 64.722 6.82031 64.8164 6.625C64.9141 6.42969 65.0524 6.25716 65.2314 6.10742C65.4137 5.95443 65.6351 5.83561 65.8955 5.75098C66.1592 5.66309 66.4554 5.61914 66.7842 5.61914C67.2432 5.61914 67.637 5.69238 67.9658 5.83887C68.2979 5.98535 68.5518 6.18717 68.7275 6.44434C68.9066 6.69824 68.9961 6.98796 68.9961 7.31348H67.5898C67.5898 7.17676 67.5605 7.05469 67.502 6.94727C67.4466 6.83659 67.3587 6.75033 67.2383 6.68848C67.1211 6.62337 66.9681 6.59082 66.7793 6.59082C66.623 6.59082 66.488 6.61849 66.374 6.67383C66.2601 6.72591 66.1722 6.79753 66.1104 6.88867C66.0518 6.97656 66.0225 7.07422 66.0225 7.18164C66.0225 7.26302 66.0387 7.33626 66.0713 7.40137C66.1071 7.46322 66.1641 7.52018 66.2422 7.57227C66.3203 7.62435 66.4212 7.67318 66.5449 7.71875C66.6719 7.76107 66.8281 7.80013 67.0137 7.83594C67.3945 7.91406 67.7347 8.0166 68.0342 8.14355C68.3337 8.26725 68.5713 8.43652 68.7471 8.65137C68.9229 8.86296 69.0107 9.14128 69.0107 9.48633C69.0107 9.7207 68.9587 9.93555 68.8545 10.1309C68.7503 10.3262 68.6006 10.4971 68.4053 10.6436C68.21 10.7868 67.9756 10.8991 67.7021 10.9805C67.432 11.0586 67.1276 11.0977 66.7891 11.0977C66.2975 11.0977 65.8809 11.0098 65.5391 10.834C65.2005 10.6582 64.9434 10.4352 64.7676 10.165C64.5951 9.8916 64.5088 9.61165 64.5088 9.3252H65.8418C65.8483 9.51725 65.8971 9.67188 65.9883 9.78906C66.0827 9.90625 66.2015 9.99089 66.3447 10.043C66.4912 10.0951 66.6491 10.1211 66.8184 10.1211C67.0007 10.1211 67.152 10.0967 67.2725 10.0479C67.3929 9.99577 67.484 9.92741 67.5459 9.84277C67.611 9.75488 67.6436 9.65397 67.6436 9.54004ZM72.1064 9.99902C72.279 9.99902 72.432 9.96647 72.5654 9.90137C72.6989 9.83301 72.8031 9.73861 72.8779 9.61816C72.9561 9.49447 72.9967 9.34961 73 9.18359H74.3232C74.32 9.55469 74.2207 9.88509 74.0254 10.1748C73.8301 10.4613 73.568 10.6875 73.2393 10.8535C72.9105 11.0163 72.5426 11.0977 72.1357 11.0977C71.7256 11.0977 71.3675 11.0293 71.0615 10.8926C70.7588 10.7559 70.5065 10.5671 70.3047 10.3262C70.1029 10.082 69.9515 9.79883 69.8506 9.47656C69.7497 9.15104 69.6992 8.80273 69.6992 8.43164V8.29004C69.6992 7.91569 69.7497 7.56738 69.8506 7.24512C69.9515 6.9196 70.1029 6.63639 70.3047 6.39551C70.5065 6.15137 70.7588 5.96094 71.0615 5.82422C71.3643 5.6875 71.7191 5.61914 72.126 5.61914C72.5589 5.61914 72.9382 5.70215 73.2637 5.86816C73.5924 6.03418 73.8496 6.27181 74.0352 6.58105C74.224 6.88704 74.32 7.25 74.3232 7.66992H73C72.9967 7.49414 72.9593 7.33464 72.8877 7.19141C72.8193 7.04818 72.7184 6.93424 72.585 6.84961C72.4548 6.76172 72.2936 6.71777 72.1016 6.71777C71.8965 6.71777 71.7288 6.76172 71.5986 6.84961C71.4684 6.93424 71.3675 7.05143 71.2959 7.20117C71.2243 7.34766 71.1738 7.5153 71.1445 7.7041C71.1185 7.88965 71.1055 8.08496 71.1055 8.29004V8.43164C71.1055 8.63672 71.1185 8.83366 71.1445 9.02246C71.1706 9.21126 71.2194 9.37891 71.291 9.52539C71.3659 9.67188 71.4684 9.78743 71.5986 9.87207C71.7288 9.95671 71.8981 9.99902 72.1064 9.99902ZM74.9141 8.41211V8.30957C74.9141 7.9222 74.9694 7.56576 75.0801 7.24023C75.1908 6.91146 75.3519 6.62663 75.5635 6.38574C75.7751 6.14486 76.0355 5.95768 76.3447 5.82422C76.654 5.6875 77.0088 5.61914 77.4092 5.61914C77.8096 5.61914 78.166 5.6875 78.4785 5.82422C78.791 5.95768 79.0531 6.14486 79.2646 6.38574C79.4795 6.62663 79.6423 6.91146 79.7529 7.24023C79.8636 7.56576 79.9189 7.9222 79.9189 8.30957V8.41211C79.9189 8.79622 79.8636 9.15267 79.7529 9.48145C79.6423 9.80697 79.4795 10.0918 79.2646 10.3359C79.0531 10.5768 78.7926 10.764 78.4834 10.8975C78.1742 11.0309 77.8193 11.0977 77.4189 11.0977C77.0186 11.0977 76.6621 11.0309 76.3496 10.8975C76.0404 10.764 75.7783 10.5768 75.5635 10.3359C75.3519 10.0918 75.1908 9.80697 75.0801 9.48145C74.9694 9.15267 74.9141 8.79622 74.9141 8.41211ZM76.3203 8.30957V8.41211C76.3203 8.63346 76.3398 8.84017 76.3789 9.03223C76.418 9.22428 76.4798 9.39355 76.5645 9.54004C76.6523 9.68327 76.7663 9.79557 76.9062 9.87695C77.0462 9.95833 77.2171 9.99902 77.4189 9.99902C77.6143 9.99902 77.7819 9.95833 77.9219 9.87695C78.0618 9.79557 78.1742 9.68327 78.2588 9.54004C78.3434 9.39355 78.4053 9.22428 78.4443 9.03223C78.4867 8.84017 78.5078 8.63346 78.5078 8.41211V8.30957C78.5078 8.09473 78.4867 7.8929 78.4443 7.7041C78.4053 7.51204 78.3418 7.34277 78.2539 7.19629C78.1693 7.04655 78.057 6.92936 77.917 6.84473C77.777 6.76009 77.6077 6.71777 77.4092 6.71777C77.2106 6.71777 77.0413 6.76009 76.9014 6.84473C76.7646 6.92936 76.6523 7.04655 76.5645 7.19629C76.4798 7.34277 76.418 7.51204 76.3789 7.7041C76.3398 7.8929 76.3203 8.09473 76.3203 8.30957Z" fill="#ECDDDD"/>
<path d="M86.375 3.75C86.2667 3.75 86.1771 3.71458 86.1062 3.64375C86.0354 3.57292 86 3.48333 86 3.375C86 3.26667 86.0354 3.17708 86.1062 3.10625C86.1771 3.03542 86.2667 3 86.375 3H93.65C93.7583 3 93.8479 3.03542 93.9187 3.10625C93.9896 3.17708 94.025 3.26667 94.025 3.375C94.025 3.48333 93.9896 3.57292 93.9187 3.64375C93.8479 3.71458 93.7583 3.75 93.65 3.75H86.375ZM86.4375 11C86.3292 11 86.2396 10.9646 86.1687 10.8938C86.0979 10.8229 86.0625 10.7333 86.0625 10.625V7.775H85.75C85.6333 7.775 85.5375 7.72917 85.4625 7.6375C85.3875 7.54583 85.3625 7.44167 85.3875 7.325L85.9375 4.8C85.9542 4.70833 85.9979 4.63542 86.0687 4.58125C86.1396 4.52708 86.2167 4.5 86.3 4.5H93.7125C93.8042 4.5 93.8833 4.52708 93.95 4.58125C94.0167 4.63542 94.0583 4.70833 94.075 4.8L94.625 7.325C94.65 7.44167 94.625 7.54583 94.55 7.6375C94.475 7.72917 94.3792 7.775 94.2625 7.775H93.95V10.625C93.95 10.7333 93.9146 10.8229 93.8437 10.8938C93.7729 10.9646 93.6833 11 93.575 11C93.4667 11 93.3771 10.9646 93.3062 10.8938C93.2354 10.8229 93.2 10.7333 93.2 10.625V7.775H90.8375V10.625C90.8375 10.7333 90.8021 10.8229 90.7312 10.8938C90.6604 10.9646 90.5708 11 90.4625 11H86.4375ZM86.8125 10.25H90.0875V7.775H86.8125V10.25ZM86.1875 7.025H93.825H86.1875ZM86.1875 7.025H93.825L93.4375 5.25H86.575L86.1875 7.025Z" fill="#ECDDDD"/>
</svg>
