<svg width="58" height="14" viewBox="0 0 58 14" fill="none" xmlns="http://www.w3.org/2000/svg">
<rect x="1" y="1" width="56" height="12" rx="2" fill="#363230" stroke="#ECDDDD" stroke-width="0.7"/>
<path d="M7.79291 8.6416H9.25287C9.22357 9.12012 9.09174 9.54492 8.85736 9.91602C8.62624 10.2871 8.30235 10.5768 7.88568 10.7852C7.47227 10.9935 6.97422 11.0977 6.39154 11.0977C5.93581 11.0977 5.52728 11.0195 5.16595 10.8633C4.80463 10.7038 4.49538 10.4759 4.23822 10.1797C3.98431 9.88346 3.79063 9.52539 3.65717 9.10547C3.5237 8.68555 3.45697 8.21517 3.45697 7.69434V7.20117C3.45697 6.68034 3.52533 6.20996 3.66205 5.79004C3.80202 5.36686 4.00059 5.00716 4.25775 4.71094C4.51817 4.41471 4.82904 4.18685 5.19037 4.02734C5.5517 3.86784 5.95534 3.78809 6.40131 3.78809C6.99375 3.78809 7.49343 3.89551 7.90033 4.11035C8.31049 4.3252 8.62787 4.62142 8.85248 4.99902C9.08034 5.37663 9.21706 5.80632 9.26263 6.28809H7.79779C7.78151 6.00163 7.72455 5.75911 7.62689 5.56055C7.52924 5.35872 7.38112 5.20736 7.18256 5.10645C6.98724 5.00228 6.72683 4.9502 6.40131 4.9502C6.15717 4.9502 5.94395 4.99577 5.76166 5.08691C5.57937 5.17806 5.42637 5.31641 5.30267 5.50195C5.17898 5.6875 5.0862 5.92188 5.02435 6.20508C4.96576 6.48503 4.93646 6.8138 4.93646 7.19141V7.69434C4.93646 8.06217 4.96413 8.38607 5.01947 8.66602C5.07481 8.94271 5.15944 9.17708 5.27338 9.36914C5.39056 9.55794 5.5403 9.70117 5.7226 9.79883C5.90814 9.89323 6.13112 9.94043 6.39154 9.94043C6.69753 9.94043 6.94981 9.8916 7.14838 9.79395C7.34694 9.69629 7.49831 9.55143 7.60248 9.35938C7.7099 9.16732 7.77338 8.92806 7.79291 8.6416ZM11.6113 5.7168V11H10.2001V5.7168H11.6113ZM10.1122 4.33984C10.1122 4.13477 10.1839 3.96549 10.3271 3.83203C10.4703 3.69857 10.6624 3.63184 10.9033 3.63184C11.1409 3.63184 11.3313 3.69857 11.4745 3.83203C11.621 3.96549 11.6943 4.13477 11.6943 4.33984C11.6943 4.54492 11.621 4.71419 11.4745 4.84766C11.3313 4.98112 11.1409 5.04785 10.9033 5.04785C10.6624 5.04785 10.4703 4.98112 10.3271 4.84766C10.1839 4.71419 10.1122 4.54492 10.1122 4.33984ZM15.8935 9.84766V3.5H17.3095V11H16.0351L15.8935 9.84766ZM12.5536 8.42188V8.31934C12.5536 7.91569 12.5992 7.54948 12.6904 7.2207C12.7815 6.88867 12.915 6.60384 13.0908 6.36621C13.2665 6.12858 13.483 5.94466 13.7402 5.81445C13.9973 5.68424 14.2903 5.61914 14.6191 5.61914C14.9283 5.61914 15.1985 5.68424 15.4296 5.81445C15.664 5.94466 15.8626 6.13021 16.0253 6.37109C16.1913 6.60872 16.3248 6.8903 16.4257 7.21582C16.5266 7.53809 16.5999 7.89128 16.6454 8.27539V8.5C16.5999 8.86784 16.5266 9.20964 16.4257 9.52539C16.3248 9.84115 16.1913 10.1178 16.0253 10.3555C15.8626 10.5898 15.664 10.7721 15.4296 10.9023C15.1953 11.0326 14.9218 11.0977 14.6093 11.0977C14.2805 11.0977 13.9876 11.0309 13.7304 10.8975C13.4765 10.764 13.2617 10.5768 13.0859 10.3359C12.9134 10.0951 12.7815 9.81185 12.6904 9.48633C12.5992 9.16081 12.5536 8.80599 12.5536 8.42188ZM13.9599 8.31934V8.42188C13.9599 8.63997 13.9762 8.84342 14.0087 9.03223C14.0445 9.22103 14.1015 9.38867 14.1796 9.53516C14.261 9.67839 14.3652 9.79069 14.4921 9.87207C14.6223 9.9502 14.7802 9.98926 14.9658 9.98926C15.2066 9.98926 15.4052 9.93555 15.5615 9.82812C15.7177 9.71745 15.8365 9.56608 15.9179 9.37402C16.0025 9.18197 16.0514 8.96061 16.0644 8.70996V8.07031C16.0546 7.86523 16.0253 7.68132 15.9765 7.51855C15.9309 7.35254 15.8626 7.21094 15.7714 7.09375C15.6835 6.97656 15.5729 6.88542 15.4394 6.82031C15.3092 6.75521 15.1546 6.72266 14.9755 6.72266C14.7932 6.72266 14.637 6.76497 14.5068 6.84961C14.3766 6.93099 14.2708 7.04329 14.1894 7.18652C14.1113 7.32975 14.0527 7.49902 14.0136 7.69434C13.9778 7.88639 13.9599 8.09473 13.9599 8.31934ZM21.2597 9.80859V7.45508C21.2597 7.28581 21.232 7.14095 21.1767 7.02051C21.1214 6.89681 21.0351 6.80078 20.9179 6.73242C20.804 6.66406 20.6559 6.62988 20.4736 6.62988C20.3173 6.62988 20.1822 6.65755 20.0683 6.71289C19.9544 6.76497 19.8665 6.84147 19.8046 6.94238C19.7428 7.04004 19.7119 7.1556 19.7119 7.28906H18.3056C18.3056 7.06445 18.3577 6.85124 18.4619 6.64941C18.566 6.44759 18.7174 6.27018 18.916 6.11719C19.1145 5.96094 19.3505 5.83887 19.624 5.75098C19.9007 5.66309 20.2099 5.61914 20.5517 5.61914C20.9619 5.61914 21.3264 5.6875 21.6454 5.82422C21.9645 5.96094 22.2151 6.16602 22.3974 6.43945C22.5829 6.71289 22.6757 7.05469 22.6757 7.46484V9.72559C22.6757 10.0153 22.6936 10.2529 22.7294 10.4385C22.7652 10.6208 22.8173 10.7803 22.8857 10.917V11H21.4648C21.3964 10.8568 21.3443 10.6777 21.3085 10.4629C21.276 10.2448 21.2597 10.0267 21.2597 9.80859ZM21.4453 7.78223L21.455 8.57812H20.6689C20.4833 8.57812 20.3222 8.59928 20.1855 8.6416C20.0488 8.68392 19.9365 8.74414 19.8486 8.82227C19.7607 8.89714 19.6956 8.98503 19.6533 9.08594C19.6142 9.18685 19.5947 9.29753 19.5947 9.41797C19.5947 9.53841 19.6223 9.64746 19.6777 9.74512C19.733 9.83952 19.8128 9.91439 19.9169 9.96973C20.0211 10.0218 20.1432 10.0479 20.2831 10.0479C20.4947 10.0479 20.6786 10.0055 20.8349 9.9209C20.9911 9.83626 21.1116 9.7321 21.1962 9.6084C21.2841 9.4847 21.3297 9.36751 21.3329 9.25684L21.704 9.85254C21.652 9.986 21.5803 10.1243 21.4892 10.2676C21.4013 10.4108 21.289 10.5459 21.1523 10.6729C21.0156 10.7965 20.8512 10.8991 20.6591 10.9805C20.4671 11.0586 20.2392 11.0977 19.9755 11.0977C19.6402 11.0977 19.3359 11.0309 19.0624 10.8975C18.7923 10.7607 18.5774 10.5736 18.4179 10.3359C18.2617 10.0951 18.1835 9.82161 18.1835 9.51562C18.1835 9.23893 18.2356 8.99316 18.3398 8.77832C18.4439 8.56348 18.5969 8.38281 18.7988 8.23633C19.0038 8.08659 19.2594 7.97428 19.5654 7.89941C19.8714 7.82129 20.2262 7.78223 20.6298 7.78223H21.4453ZM26.8798 9.84766V3.5H28.2958V11H27.0214L26.8798 9.84766ZM23.54 8.42188V8.31934C23.54 7.91569 23.5856 7.54948 23.6767 7.2207C23.7678 6.88867 23.9013 6.60384 24.0771 6.36621C24.2529 6.12858 24.4693 5.94466 24.7265 5.81445C24.9837 5.68424 25.2766 5.61914 25.6054 5.61914C25.9147 5.61914 26.1848 5.68424 26.416 5.81445C26.6503 5.94466 26.8489 6.13021 27.0117 6.37109C27.1777 6.60872 27.3111 6.8903 27.412 7.21582C27.513 7.53809 27.5862 7.89128 27.6318 8.27539V8.5C27.5862 8.86784 27.513 9.20964 27.412 9.52539C27.3111 9.84115 27.1777 10.1178 27.0117 10.3555C26.8489 10.5898 26.6503 10.7721 26.416 10.9023C26.1816 11.0326 25.9081 11.0977 25.5956 11.0977C25.2669 11.0977 24.9739 11.0309 24.7167 10.8975C24.4628 10.764 24.248 10.5768 24.0722 10.3359C23.8997 10.0951 23.7678 9.81185 23.6767 9.48633C23.5856 9.16081 23.54 8.80599 23.54 8.42188ZM24.9462 8.31934V8.42188C24.9462 8.63997 24.9625 8.84342 24.9951 9.03223C25.0309 9.22103 25.0878 9.38867 25.166 9.53516C25.2473 9.67839 25.3515 9.79069 25.4785 9.87207C25.6087 9.9502 25.7665 9.98926 25.9521 9.98926C26.193 9.98926 26.3915 9.93555 26.5478 9.82812C26.704 9.71745 26.8229 9.56608 26.9042 9.37402C26.9889 9.18197 27.0377 8.96061 27.0507 8.70996V8.07031C27.041 7.86523 27.0117 7.68132 26.9628 7.51855C26.9173 7.35254 26.8489 7.21094 26.7578 7.09375C26.6699 6.97656 26.5592 6.88542 26.4257 6.82031C26.2955 6.75521 26.1409 6.72266 25.9619 6.72266C25.7796 6.72266 25.6233 6.76497 25.4931 6.84961C25.3629 6.93099 25.2571 7.04329 25.1757 7.18652C25.0976 7.32975 25.039 7.49902 24.9999 7.69434C24.9641 7.88639 24.9462 8.09473 24.9462 8.31934ZM31.8261 11.0977C31.416 11.0977 31.0481 11.0326 30.7226 10.9023C30.3971 10.7689 30.1204 10.585 29.8925 10.3506C29.6679 10.1162 29.4954 9.8444 29.3749 9.53516C29.2545 9.22266 29.1943 8.89062 29.1943 8.53906V8.34375C29.1943 7.94336 29.2512 7.57715 29.3652 7.24512C29.4791 6.91309 29.6419 6.625 29.8535 6.38086C30.0683 6.13672 30.3287 5.94954 30.6347 5.81934C30.9407 5.68587 31.2857 5.61914 31.6699 5.61914C32.0442 5.61914 32.3762 5.68099 32.666 5.80469C32.9557 5.92839 33.1982 6.10417 33.3935 6.33203C33.5921 6.5599 33.7418 6.83333 33.8427 7.15234C33.9436 7.4681 33.9941 7.81966 33.9941 8.20703V8.79297H29.7949V7.85547H32.6122V7.74805C32.6122 7.55273 32.5764 7.37858 32.5048 7.22559C32.4365 7.06934 32.3323 6.94564 32.1923 6.85449C32.0523 6.76335 31.8733 6.71777 31.6552 6.71777C31.4697 6.71777 31.3102 6.75846 31.1767 6.83984C31.0432 6.92122 30.9342 7.03516 30.8495 7.18164C30.7682 7.32812 30.7063 7.50065 30.664 7.69922C30.6249 7.89453 30.6054 8.10938 30.6054 8.34375V8.53906C30.6054 8.75065 30.6347 8.94596 30.6933 9.125C30.7551 9.30404 30.8414 9.45866 30.9521 9.58887C31.066 9.71908 31.2027 9.81999 31.3622 9.8916C31.525 9.96322 31.7089 9.99902 31.914 9.99902C32.1679 9.99902 32.4039 9.9502 32.622 9.85254C32.8434 9.75163 33.0338 9.60026 33.1933 9.39844L33.8769 10.1406C33.7662 10.3001 33.6148 10.4531 33.4228 10.5996C33.234 10.7461 33.0061 10.8665 32.7392 10.9609C32.4723 11.0521 32.1679 11.0977 31.8261 11.0977ZM37.6513 9.54004C37.6513 9.43913 37.622 9.34798 37.5634 9.2666C37.5048 9.18522 37.3958 9.11035 37.2363 9.04199C37.08 8.97038 36.8538 8.90527 36.5576 8.84668C36.2906 8.78809 36.0416 8.71484 35.8105 8.62695C35.5826 8.53581 35.3841 8.42676 35.2148 8.2998C35.0488 8.17285 34.9186 8.02311 34.8242 7.85059C34.7298 7.6748 34.6826 7.47461 34.6826 7.25C34.6826 7.02865 34.7298 6.82031 34.8242 6.625C34.9218 6.42969 35.0602 6.25716 35.2392 6.10742C35.4215 5.95443 35.6428 5.83561 35.9033 5.75098C36.1669 5.66309 36.4632 5.61914 36.7919 5.61914C37.2509 5.61914 37.6448 5.69238 37.9736 5.83887C38.3056 5.98535 38.5595 6.18717 38.7353 6.44434C38.9143 6.69824 39.0038 6.98796 39.0038 7.31348H37.5976C37.5976 7.17676 37.5683 7.05469 37.5097 6.94727C37.4544 6.83659 37.3665 6.75033 37.246 6.68848C37.1288 6.62337 36.9759 6.59082 36.787 6.59082C36.6308 6.59082 36.4957 6.61849 36.3818 6.67383C36.2678 6.72591 36.18 6.79753 36.1181 6.88867C36.0595 6.97656 36.0302 7.07422 36.0302 7.18164C36.0302 7.26302 36.0465 7.33626 36.079 7.40137C36.1148 7.46322 36.1718 7.52018 36.2499 7.57227C36.3281 7.62435 36.429 7.67318 36.5527 7.71875C36.6796 7.76107 36.8359 7.80013 37.0214 7.83594C37.4023 7.91406 37.7425 8.0166 38.0419 8.14355C38.3414 8.26725 38.579 8.43652 38.7548 8.65137C38.9306 8.86296 39.0185 9.14128 39.0185 9.48633C39.0185 9.7207 38.9664 9.93555 38.8622 10.1309C38.7581 10.3262 38.6083 10.4971 38.413 10.6436C38.2177 10.7868 37.9833 10.8991 37.7099 10.9805C37.4397 11.0586 37.1354 11.0977 36.7968 11.0977C36.3053 11.0977 35.8886 11.0098 35.5468 10.834C35.2083 10.6582 34.9511 10.4352 34.7753 10.165C34.6028 9.8916 34.5165 9.61165 34.5165 9.3252H35.8495C35.8561 9.51725 35.9049 9.67188 35.996 9.78906C36.0904 9.90625 36.2092 9.99089 36.3525 10.043C36.499 10.0951 36.6568 10.1211 36.8261 10.1211C37.0084 10.1211 37.1598 10.0967 37.2802 10.0479C37.4007 9.99577 37.4918 9.92741 37.5536 9.84277C37.6188 9.75488 37.6513 9.65397 37.6513 9.54004Z" fill="#ECDDDD"/>
<path d="M48.8518 9.275C49.7345 8.575 50.4008 7.90208 50.8506 7.25625C51.3005 6.61042 51.5254 6.00833 51.5254 5.45C51.5254 4.95833 51.4342 4.54167 51.2517 4.2C51.0692 3.85833 50.8443 3.57917 50.5769 3.3625C50.3096 3.14583 50.0189 2.98958 49.7048 2.89375C49.3908 2.79792 49.1064 2.75 48.8518 2.75C48.5972 2.75 48.3128 2.79792 47.9988 2.89375C47.6848 2.98958 47.3941 3.14583 47.1267 3.3625C46.8593 3.57917 46.6344 3.85833 46.4519 4.2C46.2694 4.54167 46.1782 4.95833 46.1782 5.45C46.1782 6.00833 46.4031 6.61042 46.853 7.25625C47.3028 7.90208 47.9691 8.575 48.8518 9.275ZM48.8518 10.0875C48.7924 10.0875 48.7372 10.0813 48.6863 10.0688C48.6354 10.0563 48.5887 10.0333 48.5463 10C47.4853 9.19167 46.6981 8.41458 46.1846 7.66875C45.6711 6.92292 45.4143 6.18333 45.4143 5.45C45.4143 4.88333 45.5183 4.38542 45.7262 3.95625C45.9342 3.52708 46.2037 3.16667 46.5347 2.875C46.8657 2.58333 47.2349 2.36458 47.6423 2.21875C48.0497 2.07292 48.4529 2 48.8518 2C49.2507 2 49.6539 2.07292 50.0613 2.21875C50.4687 2.36458 50.8379 2.58333 51.1689 2.875C51.5 3.16667 51.7694 3.52708 51.9774 3.95625C52.1853 4.38542 52.2893 4.88333 52.2893 5.45C52.2893 6.18333 52.0326 6.92292 51.5191 7.66875C51.0055 8.41458 50.2183 9.19167 49.1574 10C49.1149 10.0333 49.0682 10.0563 49.0173 10.0688C48.9664 10.0813 48.9112 10.0875 48.8518 10.0875ZM48.8518 6.25C49.0979 6.25 49.308 6.16458 49.482 5.99375C49.656 5.82292 49.743 5.61667 49.743 5.375C49.743 5.13333 49.656 4.92708 49.482 4.75625C49.308 4.58542 49.0979 4.5 48.8518 4.5C48.6057 4.5 48.3956 4.58542 48.2216 4.75625C48.0476 4.92708 47.9606 5.13333 47.9606 5.375C47.9606 5.61667 48.0476 5.82292 48.2216 5.99375C48.3956 6.16458 48.6057 6.25 48.8518 6.25ZM45.7963 12C45.6859 12 45.5947 11.9646 45.5225 11.8938C45.4504 11.8229 45.4143 11.7333 45.4143 11.625C45.4143 11.5167 45.4504 11.4271 45.5225 11.3562C45.5947 11.2854 45.6859 11.25 45.7963 11.25H51.9074C52.0177 11.25 52.1089 11.2854 52.1811 11.3562C52.2532 11.4271 52.2893 11.5167 52.2893 11.625C52.2893 11.7333 52.2532 11.8229 52.1811 11.8938C52.1089 11.9646 52.0177 12 51.9074 12H45.7963Z" fill="#ECDDDD"/>
</svg>
