<svg width="46" height="14" viewBox="0 0 46 14" fill="none" xmlns="http://www.w3.org/2000/svg">
<rect x="1" y="1" width="44" height="12" rx="2" fill="#363230" stroke="#ECDDDD" stroke-width="0.7"/>
<path d="M8.37598 6.64328V7.78586H4.66504V6.64328H8.37598ZM5.09961 3.74777V10.8571H3.63477V3.74777H5.09961ZM9.4209 3.74777V10.8571H7.96094V3.74777H9.4209ZM10.3828 8.26926V8.16672C10.3828 7.77935 10.4382 7.4229 10.5488 7.09738C10.6595 6.76861 10.8206 6.48377 11.0322 6.24289C11.2438 6.002 11.5042 5.81483 11.8135 5.68137C12.1227 5.54465 12.4775 5.47629 12.8779 5.47629C13.2783 5.47629 13.6348 5.54465 13.9473 5.68137C14.2598 5.81483 14.5218 6.002 14.7334 6.24289C14.9482 6.48377 15.111 6.76861 15.2217 7.09738C15.3324 7.4229 15.3877 7.77935 15.3877 8.16672V8.26926C15.3877 8.65337 15.3324 9.00982 15.2217 9.33859C15.111 9.66411 14.9482 9.94894 14.7334 10.1931C14.5218 10.434 14.2614 10.6211 13.9521 10.7546C13.6429 10.8881 13.2881 10.9548 12.8877 10.9548C12.4873 10.9548 12.1309 10.8881 11.8184 10.7546C11.5091 10.6211 11.2471 10.434 11.0322 10.1931C10.8206 9.94894 10.6595 9.66411 10.5488 9.33859C10.4382 9.00982 10.3828 8.65337 10.3828 8.26926ZM11.7891 8.16672V8.26926C11.7891 8.49061 11.8086 8.69732 11.8477 8.88937C11.8867 9.08143 11.9486 9.2507 12.0332 9.39719C12.1211 9.54042 12.235 9.65272 12.375 9.7341C12.515 9.81548 12.6859 9.85617 12.8877 9.85617C13.083 9.85617 13.2507 9.81548 13.3906 9.7341C13.5306 9.65272 13.6429 9.54042 13.7275 9.39719C13.8122 9.2507 13.874 9.08143 13.9131 8.88937C13.9554 8.69732 13.9766 8.49061 13.9766 8.26926V8.16672C13.9766 7.95187 13.9554 7.75005 13.9131 7.56125C13.874 7.36919 13.8105 7.19992 13.7227 7.05344C13.638 6.9037 13.5257 6.78651 13.3857 6.70187C13.2458 6.61724 13.0765 6.57492 12.8779 6.57492C12.6794 6.57492 12.5101 6.61724 12.3701 6.70187C12.2334 6.78651 12.1211 6.9037 12.0332 7.05344C11.9486 7.19992 11.8867 7.36919 11.8477 7.56125C11.8086 7.75005 11.7891 7.95187 11.7891 8.16672ZM17.6582 6.66769V10.8571H16.2471V5.57394H17.5703L17.6582 6.66769ZM17.4629 8.03H17.0723C17.0723 7.66216 17.1162 7.32362 17.2041 7.01437C17.2952 6.70187 17.4271 6.43169 17.5996 6.20383C17.7754 5.97271 17.9919 5.79367 18.249 5.66672C18.5062 5.53976 18.804 5.47629 19.1426 5.47629C19.377 5.47629 19.5918 5.5121 19.7871 5.58371C19.9824 5.65207 20.1501 5.76112 20.29 5.91086C20.4333 6.05734 20.5439 6.2494 20.6221 6.48703C20.7002 6.72141 20.7393 7.00298 20.7393 7.33176V10.8571H19.333V7.48801C19.333 7.24712 19.3005 7.06157 19.2354 6.93137C19.1702 6.80116 19.0775 6.71001 18.957 6.65793C18.8398 6.60585 18.6982 6.5798 18.5322 6.5798C18.3499 6.5798 18.1904 6.61724 18.0537 6.69211C17.9202 6.76698 17.8096 6.87114 17.7217 7.00461C17.6338 7.13482 17.5687 7.28781 17.5264 7.46359C17.484 7.63937 17.4629 7.82818 17.4629 8.03ZM20.6074 7.86887L20.1045 7.93234C20.1045 7.58729 20.1468 7.26665 20.2314 6.97043C20.3193 6.6742 20.4479 6.41379 20.6172 6.18918C20.7897 5.96457 21.0029 5.79042 21.2568 5.66672C21.5107 5.53976 21.8037 5.47629 22.1357 5.47629C22.3896 5.47629 22.6208 5.51372 22.8291 5.58859C23.0374 5.66021 23.2148 5.77577 23.3613 5.93527C23.5111 6.09152 23.625 6.2966 23.7031 6.55051C23.7845 6.80441 23.8252 7.11529 23.8252 7.48312V10.8571H22.4141V7.48312C22.4141 7.23898 22.3815 7.05344 22.3164 6.92648C22.2546 6.79627 22.1634 6.70676 22.043 6.65793C21.9258 6.60585 21.7858 6.5798 21.623 6.5798C21.4538 6.5798 21.3057 6.61398 21.1787 6.68234C21.0518 6.74745 20.946 6.83859 20.8613 6.95578C20.7767 7.07297 20.7132 7.20969 20.6709 7.36594C20.6286 7.51893 20.6074 7.68657 20.6074 7.86887ZM27.3457 10.9548C26.9355 10.9548 26.5677 10.8897 26.2422 10.7595C25.9167 10.626 25.64 10.4421 25.4121 10.2077C25.1875 9.97336 25.015 9.70155 24.8945 9.3923C24.7741 9.0798 24.7139 8.74777 24.7139 8.39621V8.2009C24.7139 7.80051 24.7708 7.4343 24.8848 7.10226C24.9987 6.77023 25.1615 6.48215 25.373 6.23801C25.5879 5.99387 25.8483 5.80669 26.1543 5.67648C26.4603 5.54302 26.8053 5.47629 27.1895 5.47629C27.5638 5.47629 27.8958 5.53814 28.1855 5.66183C28.4753 5.78553 28.7178 5.96131 28.9131 6.18918C29.1117 6.41704 29.2614 6.69048 29.3623 7.00949C29.4632 7.32525 29.5137 7.67681 29.5137 8.06418V8.65012H25.3145V7.71262H28.1318V7.60519C28.1318 7.40988 28.096 7.23573 28.0244 7.08273C27.9561 6.92648 27.8519 6.80279 27.7119 6.71164C27.5719 6.62049 27.3929 6.57492 27.1748 6.57492C26.9893 6.57492 26.8298 6.61561 26.6963 6.69699C26.5628 6.77837 26.4538 6.8923 26.3691 7.03879C26.2878 7.18527 26.2259 7.3578 26.1836 7.55637C26.1445 7.75168 26.125 7.96652 26.125 8.2009V8.39621C26.125 8.6078 26.1543 8.80311 26.2129 8.98215C26.2747 9.16118 26.361 9.31581 26.4717 9.44601C26.5856 9.57622 26.7223 9.67713 26.8818 9.74875C27.0446 9.82036 27.2285 9.85617 27.4336 9.85617C27.6875 9.85617 27.9235 9.80734 28.1416 9.70969C28.363 9.60877 28.5534 9.45741 28.7129 9.25558L29.3965 9.99777C29.2858 10.1573 29.1344 10.3103 28.9424 10.4568C28.7536 10.6032 28.5257 10.7237 28.2588 10.8181C27.9919 10.9092 27.6875 10.9548 27.3457 10.9548Z" fill="#ECDDDD"/>
<path d="M33.6055 10.2143H35.5098V7.53572H38.3027V10.2143H40.207V6.03572L36.9062 3.94643L33.6055 6.03572V10.2143ZM33.6055 10.8571C33.3939 10.8571 33.214 10.7946 33.0659 10.6696C32.9178 10.5446 32.8438 10.3929 32.8438 10.2143V6.03572C32.8438 5.93572 32.8713 5.83929 32.9263 5.74643C32.9813 5.65357 33.0553 5.57857 33.1484 5.52143L36.4492 3.43215C36.5169 3.38929 36.5889 3.35715 36.665 3.33572C36.7412 3.31429 36.8216 3.30357 36.9062 3.30357C36.9909 3.30357 37.0713 3.31429 37.1475 3.33572C37.2236 3.35715 37.2956 3.38929 37.3633 3.43215L40.6641 5.52143C40.7572 5.57857 40.8312 5.65357 40.8862 5.74643C40.9412 5.83929 40.9688 5.93572 40.9688 6.03572V10.2143C40.9688 10.3929 40.8947 10.5446 40.7466 10.6696C40.5985 10.7946 40.4186 10.8571 40.207 10.8571H37.541V8.17857H36.2715V10.8571H33.6055Z" fill="#ECDDDD"/>
</svg>
