<svg width="56" height="14" viewBox="0 0 56 14" fill="none" xmlns="http://www.w3.org/2000/svg">
<rect x="1" y="1" width="54" height="12" rx="2" fill="#363230" stroke="#ECDDDD" stroke-width="0.7"/>
<path d="M43.25 11.5C43.0417 11.5 42.8646 11.4271 42.7188 11.2812C42.5729 11.1354 42.5 10.9583 42.5 10.75V5.27499C42.5 5.06666 42.5729 4.88958 42.7188 4.74374C42.8646 4.59791 43.0417 4.52499 43.25 4.52499H45.5875V3.68749C45.5875 3.63749 45.5917 3.58749 45.6 3.53749C45.6083 3.48749 45.6229 3.43958 45.6438 3.39374C45.6646 3.34791 45.6896 3.30416 45.7188 3.26249C45.7479 3.22083 45.7792 3.18333 45.8125 3.14999L46.7375 2.24999C46.8125 2.18333 46.9 2.14999 47 2.14999C47.1 2.14999 47.1875 2.18333 47.2625 2.24999L48.1875 3.14999C48.2625 3.21666 48.3187 3.29791 48.3562 3.39374C48.3937 3.48958 48.4125 3.58749 48.4125 3.68749V6.59999H50.75C50.9583 6.59999 51.1354 6.67291 51.2812 6.81874C51.4271 6.96458 51.5 7.14166 51.5 7.34999V10.75C51.5 10.9583 51.4271 11.1354 51.2812 11.2812C51.1354 11.4271 50.9583 11.5 50.75 11.5H43.25ZM43.25 10.75H44.575V9.42499H43.25V10.75ZM43.25 8.67499H44.575V7.34999H43.25V8.67499ZM43.25 6.59999H44.575V5.27499H43.25V6.59999ZM46.3375 10.75H47.6625V9.42499H46.3375V10.75ZM46.3375 8.67499H47.6625V7.34999H46.3375V8.67499ZM46.3375 6.59999H47.6625V5.27499H46.3375V6.59999ZM46.3375 4.52499H47.6625V3.19999H46.3375V4.52499ZM49.425 10.75H50.75V9.42499H49.425V10.75ZM49.425 8.67499H50.75V7.34999H49.425V8.67499Z" fill="#ECDDDD"/>
<path d="M5.19238 3.89062V11H3.73242V3.89062H5.19238ZM7.88281 6.81055V11H6.47168V5.7168H7.79492L7.88281 6.81055ZM7.6875 8.17285H7.29688C7.29688 7.80501 7.34082 7.46647 7.42871 7.15723C7.51986 6.84473 7.65169 6.57454 7.82422 6.34668C8 6.11556 8.21647 5.93652 8.47363 5.80957C8.73079 5.68262 9.02865 5.61914 9.36719 5.61914C9.60156 5.61914 9.81641 5.65495 10.0117 5.72656C10.207 5.79492 10.3747 5.90397 10.5146 6.05371C10.6579 6.2002 10.7686 6.39225 10.8467 6.62988C10.9248 6.86426 10.9639 7.14583 10.9639 7.47461V11H9.55762V7.63086C9.55762 7.38997 9.52507 7.20443 9.45996 7.07422C9.39486 6.94401 9.30208 6.85286 9.18164 6.80078C9.06445 6.7487 8.92285 6.72266 8.75684 6.72266C8.57454 6.72266 8.41504 6.76009 8.27832 6.83496C8.14486 6.90983 8.03418 7.014 7.94629 7.14746C7.8584 7.27767 7.79329 7.43066 7.75098 7.60645C7.70866 7.78223 7.6875 7.97103 7.6875 8.17285ZM10.832 8.01172L10.3291 8.0752C10.3291 7.73014 10.3714 7.40951 10.4561 7.11328C10.5439 6.81706 10.6725 6.55664 10.8418 6.33203C11.0143 6.10742 11.2275 5.93327 11.4814 5.80957C11.7354 5.68262 12.0283 5.61914 12.3604 5.61914C12.6143 5.61914 12.8454 5.65658 13.0537 5.73145C13.262 5.80306 13.4395 5.91862 13.5859 6.07812C13.7357 6.23438 13.8496 6.43945 13.9277 6.69336C14.0091 6.94727 14.0498 7.25814 14.0498 7.62598V11H12.6387V7.62598C12.6387 7.38184 12.6061 7.19629 12.541 7.06934C12.4792 6.93913 12.388 6.84961 12.2676 6.80078C12.1504 6.7487 12.0104 6.72266 11.8477 6.72266C11.6784 6.72266 11.5303 6.75684 11.4033 6.8252C11.2764 6.8903 11.1706 6.98145 11.0859 7.09863C11.0013 7.21582 10.9378 7.35254 10.8955 7.50879C10.8532 7.66178 10.832 7.82943 10.832 8.01172ZM14.9141 8.41211V8.30957C14.9141 7.9222 14.9694 7.56576 15.0801 7.24023C15.1908 6.91146 15.3519 6.62663 15.5635 6.38574C15.7751 6.14486 16.0355 5.95768 16.3447 5.82422C16.654 5.6875 17.0088 5.61914 17.4092 5.61914C17.8096 5.61914 18.166 5.6875 18.4785 5.82422C18.791 5.95768 19.0531 6.14486 19.2646 6.38574C19.4795 6.62663 19.6423 6.91146 19.7529 7.24023C19.8636 7.56576 19.9189 7.9222 19.9189 8.30957V8.41211C19.9189 8.79622 19.8636 9.15267 19.7529 9.48145C19.6423 9.80697 19.4795 10.0918 19.2646 10.3359C19.0531 10.5768 18.7926 10.764 18.4834 10.8975C18.1742 11.0309 17.8193 11.0977 17.4189 11.0977C17.0186 11.0977 16.6621 11.0309 16.3496 10.8975C16.0404 10.764 15.7783 10.5768 15.5635 10.3359C15.3519 10.0918 15.1908 9.80697 15.0801 9.48145C14.9694 9.15267 14.9141 8.79622 14.9141 8.41211ZM16.3203 8.30957V8.41211C16.3203 8.63346 16.3398 8.84017 16.3789 9.03223C16.418 9.22428 16.4798 9.39355 16.5645 9.54004C16.6523 9.68327 16.7663 9.79557 16.9062 9.87695C17.0462 9.95833 17.2171 9.99902 17.4189 9.99902C17.6143 9.99902 17.7819 9.95833 17.9219 9.87695C18.0618 9.79557 18.1742 9.68327 18.2588 9.54004C18.3434 9.39355 18.4053 9.22428 18.4443 9.03223C18.4867 8.84017 18.5078 8.63346 18.5078 8.41211V8.30957C18.5078 8.09473 18.4867 7.8929 18.4443 7.7041C18.4053 7.51204 18.3418 7.34277 18.2539 7.19629C18.1693 7.04655 18.057 6.92936 17.917 6.84473C17.777 6.76009 17.6077 6.71777 17.4092 6.71777C17.2106 6.71777 17.0413 6.76009 16.9014 6.84473C16.7646 6.92936 16.6523 7.04655 16.5645 7.19629C16.4798 7.34277 16.418 7.51204 16.3789 7.7041C16.3398 7.8929 16.3203 8.09473 16.3203 8.30957ZM16.7354 5.00391L17.6924 3.5H19.2207L17.8779 5.00391H16.7354ZM22.502 9.97461L23.6738 5.7168H25.1436L23.3613 11H22.4727L22.502 9.97461ZM21.6963 5.7168L22.873 9.97949L22.8975 11H22.0039L20.2217 5.7168H21.6963ZM28.1367 11.0977C27.7266 11.0977 27.3587 11.0326 27.0332 10.9023C26.7077 10.7689 26.431 10.585 26.2031 10.3506C25.9785 10.1162 25.806 9.8444 25.6855 9.53516C25.5651 9.22266 25.5049 8.89062 25.5049 8.53906V8.34375C25.5049 7.94336 25.5618 7.57715 25.6758 7.24512C25.7897 6.91309 25.9525 6.625 26.1641 6.38086C26.3789 6.13672 26.6393 5.94954 26.9453 5.81934C27.2513 5.68587 27.5964 5.61914 27.9805 5.61914C28.3548 5.61914 28.6868 5.68099 28.9766 5.80469C29.2663 5.92839 29.5088 6.10417 29.7041 6.33203C29.9027 6.5599 30.0524 6.83333 30.1533 7.15234C30.2542 7.4681 30.3047 7.81966 30.3047 8.20703V8.79297H26.1055V7.85547H28.9229V7.74805C28.9229 7.55273 28.887 7.37858 28.8154 7.22559C28.7471 7.06934 28.6429 6.94564 28.5029 6.85449C28.363 6.76335 28.1839 6.71777 27.9658 6.71777C27.7803 6.71777 27.6208 6.75846 27.4873 6.83984C27.3538 6.92122 27.2448 7.03516 27.1602 7.18164C27.0788 7.32812 27.0169 7.50065 26.9746 7.69922C26.9355 7.89453 26.916 8.10938 26.916 8.34375V8.53906C26.916 8.75065 26.9453 8.94596 27.0039 9.125C27.0658 9.30404 27.152 9.45866 27.2627 9.58887C27.3766 9.71908 27.5133 9.81999 27.6729 9.8916C27.8356 9.96322 28.0195 9.99902 28.2246 9.99902C28.4785 9.99902 28.7145 9.9502 28.9326 9.85254C29.154 9.75163 29.3444 9.60026 29.5039 9.39844L30.1875 10.1406C30.0768 10.3001 29.9255 10.4531 29.7334 10.5996C29.5446 10.7461 29.3167 10.8665 29.0498 10.9609C28.7829 11.0521 28.4785 11.0977 28.1367 11.0977ZM32.5898 5.7168V11H31.1787V5.7168H32.5898ZM31.0908 4.33984C31.0908 4.13477 31.1624 3.96549 31.3057 3.83203C31.4489 3.69857 31.641 3.63184 31.8818 3.63184C32.1195 3.63184 32.3099 3.69857 32.4531 3.83203C32.5996 3.96549 32.6729 4.13477 32.6729 4.33984C32.6729 4.54492 32.5996 4.71419 32.4531 4.84766C32.3099 4.98112 32.1195 5.04785 31.8818 5.04785C31.641 5.04785 31.4489 4.98112 31.3057 4.84766C31.1624 4.71419 31.0908 4.54492 31.0908 4.33984ZM36.6084 9.54004C36.6084 9.43913 36.5791 9.34798 36.5205 9.2666C36.4619 9.18522 36.3529 9.11035 36.1934 9.04199C36.0371 8.97038 35.8109 8.90527 35.5146 8.84668C35.2477 8.78809 34.9987 8.71484 34.7676 8.62695C34.5397 8.53581 34.3411 8.42676 34.1719 8.2998C34.0059 8.17285 33.8757 8.02311 33.7812 7.85059C33.6868 7.6748 33.6396 7.47461 33.6396 7.25C33.6396 7.02865 33.6868 6.82031 33.7812 6.625C33.8789 6.42969 34.0173 6.25716 34.1963 6.10742C34.3786 5.95443 34.5999 5.83561 34.8604 5.75098C35.124 5.66309 35.4202 5.61914 35.749 5.61914C36.208 5.61914 36.6019 5.69238 36.9307 5.83887C37.2627 5.98535 37.5166 6.18717 37.6924 6.44434C37.8714 6.69824 37.9609 6.98796 37.9609 7.31348H36.5547C36.5547 7.17676 36.5254 7.05469 36.4668 6.94727C36.4115 6.83659 36.3236 6.75033 36.2031 6.68848C36.0859 6.62337 35.9329 6.59082 35.7441 6.59082C35.5879 6.59082 35.4528 6.61849 35.3389 6.67383C35.2249 6.72591 35.137 6.79753 35.0752 6.88867C35.0166 6.97656 34.9873 7.07422 34.9873 7.18164C34.9873 7.26302 35.0036 7.33626 35.0361 7.40137C35.0719 7.46322 35.1289 7.52018 35.207 7.57227C35.2852 7.62435 35.3861 7.67318 35.5098 7.71875C35.6367 7.76107 35.793 7.80013 35.9785 7.83594C36.3594 7.91406 36.6995 8.0166 36.999 8.14355C37.2985 8.26725 37.5361 8.43652 37.7119 8.65137C37.8877 8.86296 37.9756 9.14128 37.9756 9.48633C37.9756 9.7207 37.9235 9.93555 37.8193 10.1309C37.7152 10.3262 37.5654 10.4971 37.3701 10.6436C37.1748 10.7868 36.9404 10.8991 36.667 10.9805C36.3968 11.0586 36.0924 11.0977 35.7539 11.0977C35.2624 11.0977 34.8457 11.0098 34.5039 10.834C34.1654 10.6582 33.9082 10.4352 33.7324 10.165C33.5599 9.8916 33.4736 9.61165 33.4736 9.3252H34.8066C34.8132 9.51725 34.862 9.67188 34.9531 9.78906C35.0475 9.90625 35.1663 9.99089 35.3096 10.043C35.4561 10.0951 35.6139 10.1211 35.7832 10.1211C35.9655 10.1211 36.1169 10.0967 36.2373 10.0479C36.3577 9.99577 36.4489 9.92741 36.5107 9.84277C36.5758 9.75488 36.6084 9.65397 36.6084 9.54004Z" fill="#ECDDDD"/>
</svg>
