<svg width="76" height="14" viewBox="0 0 76 14" fill="none" xmlns="http://www.w3.org/2000/svg">
<rect x="1" y="1" width="74" height="12" rx="2" fill="#363230" stroke="#ECDDDD" stroke-width="0.7"/>
<path d="M4.30371 3.89062H5.54395L7.37012 9.11035L9.19629 3.89062H10.4365L7.86816 11H6.87207L4.30371 3.89062ZM3.63477 3.89062H4.87012L5.09473 8.97852V11H3.63477V3.89062ZM9.87012 3.89062H11.1104V11H9.64551V8.97852L9.87012 3.89062ZM13.791 5.7168V11H12.3799V5.7168H13.791ZM12.292 4.33984C12.292 4.13477 12.3636 3.96549 12.5068 3.83203C12.6501 3.69857 12.8421 3.63184 13.083 3.63184C13.3206 3.63184 13.5111 3.69857 13.6543 3.83203C13.8008 3.96549 13.874 4.13477 13.874 4.33984C13.874 4.54492 13.8008 4.71419 13.6543 4.84766C13.5111 4.98112 13.3206 5.04785 13.083 5.04785C12.8421 5.04785 12.6501 4.98112 12.5068 4.84766C12.3636 4.71419 12.292 4.54492 12.292 4.33984ZM16.3301 6.84473V11H14.9238V5.7168H16.2422L16.3301 6.84473ZM16.125 8.17285H15.7441C15.7441 7.78223 15.7946 7.43066 15.8955 7.11816C15.9964 6.80241 16.138 6.53385 16.3203 6.3125C16.5026 6.08789 16.7191 5.91699 16.9697 5.7998C17.2236 5.67936 17.5068 5.61914 17.8193 5.61914C18.0667 5.61914 18.293 5.65495 18.498 5.72656C18.7031 5.79818 18.8789 5.91211 19.0254 6.06836C19.1751 6.22461 19.2891 6.43132 19.3672 6.68848C19.4486 6.94564 19.4893 7.25977 19.4893 7.63086V11H18.0732V7.62598C18.0732 7.3916 18.0407 7.20931 17.9756 7.0791C17.9105 6.94889 17.8145 6.85775 17.6875 6.80566C17.5638 6.75033 17.4108 6.72266 17.2285 6.72266C17.0397 6.72266 16.8753 6.76009 16.7354 6.83496C16.5986 6.90983 16.4847 7.014 16.3936 7.14746C16.3057 7.27767 16.2389 7.43066 16.1934 7.60645C16.1478 7.78223 16.125 7.97103 16.125 8.17285ZM21.9307 3.5V11H20.5244V3.5H21.9307ZM21.7305 8.17285H21.3447C21.348 7.80501 21.3968 7.46647 21.4912 7.15723C21.5856 6.84473 21.7207 6.57454 21.8965 6.34668C22.0723 6.11556 22.2822 5.93652 22.5264 5.80957C22.7738 5.68262 23.0472 5.61914 23.3467 5.61914C23.6071 5.61914 23.8431 5.65658 24.0547 5.73145C24.2695 5.80306 24.4535 5.92025 24.6064 6.08301C24.7627 6.24251 24.8831 6.45247 24.9678 6.71289C25.0524 6.97331 25.0947 7.28906 25.0947 7.66016V11H23.6787V7.65039C23.6787 7.41602 23.6445 7.2321 23.5762 7.09863C23.5111 6.96191 23.415 6.86589 23.2881 6.81055C23.1644 6.75195 23.0114 6.72266 22.8291 6.72266C22.6273 6.72266 22.4548 6.76009 22.3115 6.83496C22.1715 6.90983 22.0592 7.014 21.9746 7.14746C21.89 7.27767 21.8281 7.43066 21.7891 7.60645C21.75 7.78223 21.7305 7.97103 21.7305 8.17285ZM29.0156 9.80859V7.45508C29.0156 7.28581 28.988 7.14095 28.9326 7.02051C28.8773 6.89681 28.791 6.80078 28.6738 6.73242C28.5599 6.66406 28.4118 6.62988 28.2295 6.62988C28.0732 6.62988 27.9382 6.65755 27.8242 6.71289C27.7103 6.76497 27.6224 6.84147 27.5605 6.94238C27.4987 7.04004 27.4678 7.1556 27.4678 7.28906H26.0615C26.0615 7.06445 26.1136 6.85124 26.2178 6.64941C26.3219 6.44759 26.4733 6.27018 26.6719 6.11719C26.8704 5.96094 27.1064 5.83887 27.3799 5.75098C27.6566 5.66309 27.9658 5.61914 28.3076 5.61914C28.7178 5.61914 29.0824 5.6875 29.4014 5.82422C29.7204 5.96094 29.971 6.16602 30.1533 6.43945C30.3389 6.71289 30.4316 7.05469 30.4316 7.46484V9.72559C30.4316 10.0153 30.4495 10.2529 30.4854 10.4385C30.5212 10.6208 30.5732 10.7803 30.6416 10.917V11H29.2207C29.1523 10.8568 29.1003 10.6777 29.0645 10.4629C29.0319 10.2448 29.0156 10.0267 29.0156 9.80859ZM29.2012 7.78223L29.2109 8.57812H28.4248C28.2393 8.57812 28.0781 8.59928 27.9414 8.6416C27.8047 8.68392 27.6924 8.74414 27.6045 8.82227C27.5166 8.89714 27.4515 8.98503 27.4092 9.08594C27.3701 9.18685 27.3506 9.29753 27.3506 9.41797C27.3506 9.53841 27.3783 9.64746 27.4336 9.74512C27.4889 9.83952 27.5687 9.91439 27.6729 9.96973C27.777 10.0218 27.8991 10.0479 28.0391 10.0479C28.2507 10.0479 28.4346 10.0055 28.5908 9.9209C28.7471 9.83626 28.8675 9.7321 28.9521 9.6084C29.04 9.4847 29.0856 9.36751 29.0889 9.25684L29.46 9.85254C29.4079 9.986 29.3363 10.1243 29.2451 10.2676C29.1572 10.4108 29.0449 10.5459 28.9082 10.6729C28.7715 10.7965 28.6071 10.8991 28.415 10.9805C28.223 11.0586 27.9951 11.0977 27.7314 11.0977C27.3962 11.0977 27.0918 11.0309 26.8184 10.8975C26.5482 10.7607 26.3333 10.5736 26.1738 10.3359C26.0176 10.0951 25.9395 9.82161 25.9395 9.51562C25.9395 9.23893 25.9915 8.99316 26.0957 8.77832C26.1999 8.56348 26.3529 8.38281 26.5547 8.23633C26.7598 8.08659 27.0153 7.97428 27.3213 7.89941C27.6273 7.82129 27.9821 7.78223 28.3857 7.78223H29.2012ZM36.1885 9.99902C36.361 9.99902 36.514 9.96647 36.6475 9.90137C36.7809 9.83301 36.8851 9.73861 36.96 9.61816C37.0381 9.49447 37.0788 9.34961 37.082 9.18359H38.4053C38.402 9.55469 38.3027 9.88509 38.1074 10.1748C37.9121 10.4613 37.6501 10.6875 37.3213 10.8535C36.9925 11.0163 36.6247 11.0977 36.2178 11.0977C35.8076 11.0977 35.4495 11.0293 35.1436 10.8926C34.8408 10.7559 34.5885 10.5671 34.3867 10.3262C34.1849 10.082 34.0335 9.79883 33.9326 9.47656C33.8317 9.15104 33.7812 8.80273 33.7812 8.43164V8.29004C33.7812 7.91569 33.8317 7.56738 33.9326 7.24512C34.0335 6.9196 34.1849 6.63639 34.3867 6.39551C34.5885 6.15137 34.8408 5.96094 35.1436 5.82422C35.4463 5.6875 35.8011 5.61914 36.208 5.61914C36.641 5.61914 37.0202 5.70215 37.3457 5.86816C37.6745 6.03418 37.9316 6.27181 38.1172 6.58105C38.306 6.88704 38.402 7.25 38.4053 7.66992H37.082C37.0788 7.49414 37.0413 7.33464 36.9697 7.19141C36.9014 7.04818 36.8005 6.93424 36.667 6.84961C36.5368 6.76172 36.3757 6.71777 36.1836 6.71777C35.9785 6.71777 35.8109 6.76172 35.6807 6.84961C35.5505 6.93424 35.4495 7.05143 35.3779 7.20117C35.3063 7.34766 35.2559 7.5153 35.2266 7.7041C35.2005 7.88965 35.1875 8.08496 35.1875 8.29004V8.43164C35.1875 8.63672 35.2005 8.83366 35.2266 9.02246C35.2526 9.21126 35.3014 9.37891 35.373 9.52539C35.4479 9.67188 35.5505 9.78743 35.6807 9.87207C35.8109 9.95671 35.9801 9.99902 36.1885 9.99902ZM38.9961 8.41211V8.30957C38.9961 7.9222 39.0514 7.56576 39.1621 7.24023C39.2728 6.91146 39.4339 6.62663 39.6455 6.38574C39.8571 6.14486 40.1175 5.95768 40.4268 5.82422C40.736 5.6875 41.0908 5.61914 41.4912 5.61914C41.8916 5.61914 42.248 5.6875 42.5605 5.82422C42.873 5.95768 43.1351 6.14486 43.3467 6.38574C43.5615 6.62663 43.7243 6.91146 43.835 7.24023C43.9456 7.56576 44.001 7.9222 44.001 8.30957V8.41211C44.001 8.79622 43.9456 9.15267 43.835 9.48145C43.7243 9.80697 43.5615 10.0918 43.3467 10.3359C43.1351 10.5768 42.8747 10.764 42.5654 10.8975C42.2562 11.0309 41.9014 11.0977 41.501 11.0977C41.1006 11.0977 40.7441 11.0309 40.4316 10.8975C40.1224 10.764 39.8604 10.5768 39.6455 10.3359C39.4339 10.0918 39.2728 9.80697 39.1621 9.48145C39.0514 9.15267 38.9961 8.79622 38.9961 8.41211ZM40.4023 8.30957V8.41211C40.4023 8.63346 40.4219 8.84017 40.4609 9.03223C40.5 9.22428 40.5618 9.39355 40.6465 9.54004C40.7344 9.68327 40.8483 9.79557 40.9883 9.87695C41.1283 9.95833 41.2992 9.99902 41.501 9.99902C41.6963 9.99902 41.8639 9.95833 42.0039 9.87695C42.1439 9.79557 42.2562 9.68327 42.3408 9.54004C42.4255 9.39355 42.4873 9.22428 42.5264 9.03223C42.5687 8.84017 42.5898 8.63346 42.5898 8.41211V8.30957C42.5898 8.09473 42.5687 7.8929 42.5264 7.7041C42.4873 7.51204 42.4238 7.34277 42.3359 7.19629C42.2513 7.04655 42.139 6.92936 41.999 6.84473C41.859 6.76009 41.6898 6.71777 41.4912 6.71777C41.2926 6.71777 41.1234 6.76009 40.9834 6.84473C40.8467 6.92936 40.7344 7.04655 40.6465 7.19629C40.5618 7.34277 40.5 7.51204 40.4609 7.7041C40.4219 7.8929 40.4023 8.09473 40.4023 8.30957ZM46.2422 6.84473V11H44.8359V5.7168H46.1543L46.2422 6.84473ZM46.0371 8.17285H45.6562C45.6562 7.78223 45.7067 7.43066 45.8076 7.11816C45.9085 6.80241 46.0501 6.53385 46.2324 6.3125C46.4147 6.08789 46.6312 5.91699 46.8818 5.7998C47.1357 5.67936 47.4189 5.61914 47.7314 5.61914C47.9788 5.61914 48.2051 5.65495 48.4102 5.72656C48.6152 5.79818 48.791 5.91211 48.9375 6.06836C49.0872 6.22461 49.2012 6.43132 49.2793 6.68848C49.3607 6.94564 49.4014 7.25977 49.4014 7.63086V11H47.9854V7.62598C47.9854 7.3916 47.9528 7.20931 47.8877 7.0791C47.8226 6.94889 47.7266 6.85775 47.5996 6.80566C47.4759 6.75033 47.3229 6.72266 47.1406 6.72266C46.9518 6.72266 46.7874 6.76009 46.6475 6.83496C46.5107 6.90983 46.3968 7.014 46.3057 7.14746C46.2178 7.27767 46.151 7.43066 46.1055 7.60645C46.0599 7.78223 46.0371 7.97103 46.0371 8.17285ZM53.0586 5.7168V6.71289H49.9824V5.7168H53.0586ZM50.7441 4.41309H52.1504V9.4082C52.1504 9.5612 52.1699 9.67839 52.209 9.75977C52.2513 9.84115 52.3132 9.89811 52.3945 9.93066C52.4759 9.95996 52.5785 9.97461 52.7021 9.97461C52.79 9.97461 52.8682 9.97135 52.9365 9.96484C53.0081 9.95508 53.0684 9.94531 53.1172 9.93555L53.1221 10.9707C53.0016 11.0098 52.8714 11.0407 52.7314 11.0635C52.5915 11.0863 52.4368 11.0977 52.2676 11.0977C51.9583 11.0977 51.6882 11.0472 51.457 10.9463C51.2292 10.8421 51.0534 10.6761 50.9297 10.4482C50.806 10.2204 50.7441 9.9209 50.7441 9.5498V4.41309ZM56.7109 9.80859V7.45508C56.7109 7.28581 56.6833 7.14095 56.6279 7.02051C56.5726 6.89681 56.4863 6.80078 56.3691 6.73242C56.2552 6.66406 56.1071 6.62988 55.9248 6.62988C55.7686 6.62988 55.6335 6.65755 55.5195 6.71289C55.4056 6.76497 55.3177 6.84147 55.2559 6.94238C55.194 7.04004 55.1631 7.1556 55.1631 7.28906H53.7568C53.7568 7.06445 53.8089 6.85124 53.9131 6.64941C54.0173 6.44759 54.1686 6.27018 54.3672 6.11719C54.5658 5.96094 54.8018 5.83887 55.0752 5.75098C55.3519 5.66309 55.6611 5.61914 56.0029 5.61914C56.4131 5.61914 56.7777 5.6875 57.0967 5.82422C57.4157 5.96094 57.6663 6.16602 57.8486 6.43945C58.0342 6.71289 58.127 7.05469 58.127 7.46484V9.72559C58.127 10.0153 58.1449 10.2529 58.1807 10.4385C58.2165 10.6208 58.2686 10.7803 58.3369 10.917V11H56.916C56.8477 10.8568 56.7956 10.6777 56.7598 10.4629C56.7272 10.2448 56.7109 10.0267 56.7109 9.80859ZM56.8965 7.78223L56.9062 8.57812H56.1201C55.9346 8.57812 55.7734 8.59928 55.6367 8.6416C55.5 8.68392 55.3877 8.74414 55.2998 8.82227C55.2119 8.89714 55.1468 8.98503 55.1045 9.08594C55.0654 9.18685 55.0459 9.29753 55.0459 9.41797C55.0459 9.53841 55.0736 9.64746 55.1289 9.74512C55.1842 9.83952 55.264 9.91439 55.3682 9.96973C55.4723 10.0218 55.5944 10.0479 55.7344 10.0479C55.946 10.0479 56.1299 10.0055 56.2861 9.9209C56.4424 9.83626 56.5628 9.7321 56.6475 9.6084C56.7354 9.4847 56.7809 9.36751 56.7842 9.25684L57.1553 9.85254C57.1032 9.986 57.0316 10.1243 56.9404 10.2676C56.8525 10.4108 56.7402 10.5459 56.6035 10.6729C56.4668 10.7965 56.3024 10.8991 56.1104 10.9805C55.9183 11.0586 55.6904 11.0977 55.4268 11.0977C55.0915 11.0977 54.7871 11.0309 54.5137 10.8975C54.2435 10.7607 54.0286 10.5736 53.8691 10.3359C53.7129 10.0951 53.6348 9.82161 53.6348 9.51562C53.6348 9.23893 53.6868 8.99316 53.791 8.77832C53.8952 8.56348 54.0482 8.38281 54.25 8.23633C54.4551 8.08659 54.7106 7.97428 55.0166 7.89941C55.3226 7.82129 55.6774 7.78223 56.0811 7.78223H56.8965Z" fill="#ECDDDD"/>
<path d="M64.775 9.8125C65.3 9.44583 65.8208 9.16458 66.3375 8.96875C66.8542 8.77292 67.4083 8.675 68 8.675C68.5917 8.675 69.1479 8.77292 69.6688 8.96875C70.1896 9.16458 70.7125 9.44583 71.2375 9.8125C71.6042 9.3625 71.8646 8.90833 72.0188 8.45C72.1729 7.99167 72.25 7.50833 72.25 7C72.25 5.79167 71.8438 4.78125 71.0313 3.96875C70.2188 3.15625 69.2083 2.75 68 2.75C66.7917 2.75 65.7813 3.15625 64.9688 3.96875C64.1563 4.78125 63.75 5.79167 63.75 7C63.75 7.50833 63.8292 7.99167 63.9875 8.45C64.1458 8.90833 64.4083 9.3625 64.775 9.8125ZM68 7.375C67.5167 7.375 67.1104 7.21042 66.7813 6.88125C66.4521 6.55208 66.2875 6.14583 66.2875 5.6625C66.2875 5.17917 66.4521 4.77292 66.7813 4.44375C67.1104 4.11458 67.5167 3.95 68 3.95C68.4833 3.95 68.8896 4.11458 69.2188 4.44375C69.5479 4.77292 69.7125 5.17917 69.7125 5.6625C69.7125 6.14583 69.5479 6.55208 69.2188 6.88125C68.8896 7.21042 68.4833 7.375 68 7.375ZM68 12C67.3167 12 66.6708 11.8687 66.0625 11.6062C65.4542 11.3438 64.9229 10.9854 64.4688 10.5312C64.0146 10.0771 63.6562 9.54583 63.3938 8.9375C63.1312 8.32917 63 7.68333 63 7C63 6.30833 63.1312 5.66042 63.3938 5.05625C63.6562 4.45208 64.0146 3.92292 64.4688 3.46875C64.9229 3.01458 65.4542 2.65625 66.0625 2.39375C66.6708 2.13125 67.3167 2 68 2C68.6917 2 69.3396 2.13125 69.9438 2.39375C70.5479 2.65625 71.0771 3.01458 71.5313 3.46875C71.9854 3.92292 72.3438 4.45208 72.6063 5.05625C72.8688 5.66042 73 6.30833 73 7C73 7.68333 72.8688 8.32917 72.6063 8.9375C72.3438 9.54583 71.9854 10.0771 71.5313 10.5312C71.0771 10.9854 70.5479 11.3438 69.9438 11.6062C69.3396 11.8687 68.6917 12 68 12ZM68 11.25C68.4583 11.25 68.9063 11.1833 69.3438 11.05C69.7813 10.9167 70.2125 10.6833 70.6375 10.35C70.2125 10.05 69.7792 9.82083 69.3375 9.6625C68.8958 9.50417 68.45 9.425 68 9.425C67.55 9.425 67.1042 9.50417 66.6625 9.6625C66.2208 9.82083 65.7875 10.05 65.3625 10.35C65.7875 10.6833 66.2188 10.9167 66.6563 11.05C67.0938 11.1833 67.5417 11.25 68 11.25ZM68 6.625C68.2833 6.625 68.5146 6.53542 68.6938 6.35625C68.8729 6.17708 68.9625 5.94583 68.9625 5.6625C68.9625 5.37917 68.8729 5.14792 68.6938 4.96875C68.5146 4.78958 68.2833 4.7 68 4.7C67.7167 4.7 67.4854 4.78958 67.3063 4.96875C67.1271 5.14792 67.0375 5.37917 67.0375 5.6625C67.0375 5.94583 67.1271 6.17708 67.3063 6.35625C67.4854 6.53542 67.7167 6.625 68 6.625Z" fill="#ECDDDD"/>
</svg>
