<svg width="162" height="15" viewBox="0 0 162 15" fill="none" xmlns="http://www.w3.org/2000/svg">
<rect opacity="0.7" x="1" y="1" width="160" height="13" rx="2" stroke="#D1C2C2"/>
<g clip-path="url(#clip0_162_36)">
<path d="M16.3299 13L12.3118 8.98194C12.0062 9.24676 11.6498 9.45301 11.2424 9.60069C10.8349 9.74838 10.4021 9.82222 9.94374 9.82222C8.84374 9.82222 7.9118 9.44028 7.14791 8.67639C6.38402 7.9125 6.00208 6.99074 6.00208 5.91111C6.00208 4.83148 6.38402 3.90972 7.14791 3.14583C7.9118 2.38194 8.83865 2 9.92846 2C11.0081 2 11.9273 2.38194 12.6861 3.14583C13.4449 3.90972 13.8243 4.83148 13.8243 5.91111C13.8243 6.34907 13.753 6.77176 13.6104 7.17917C13.4678 7.58657 13.2539 7.96852 12.9687 8.325L17.0021 12.3278L16.3299 13ZM9.92846 8.90556C10.7535 8.90556 11.4562 8.61273 12.0368 8.02708C12.6174 7.44143 12.9076 6.73611 12.9076 5.91111C12.9076 5.08611 12.6174 4.38079 12.0368 3.79514C11.4562 3.20949 10.7535 2.91667 9.92846 2.91667C9.09328 2.91667 8.38286 3.20949 7.79721 3.79514C7.21157 4.38079 6.91874 5.08611 6.91874 5.91111C6.91874 6.73611 7.21157 7.44143 7.79721 8.02708C8.38286 8.61273 9.09328 8.90556 9.92846 8.90556Z" fill="#827C7B"/>
</g>
<path opacity="0.9" d="M26.9305 7.87988H25.1043L25.0945 6.87402H26.6277C26.8979 6.87402 27.1193 6.83984 27.2918 6.77148C27.4643 6.69987 27.5929 6.59733 27.6776 6.46387C27.7654 6.32715 27.8094 6.16113 27.8094 5.96582C27.8094 5.74447 27.7671 5.56543 27.6824 5.42871C27.6011 5.29199 27.4725 5.19271 27.2967 5.13086C27.1242 5.06901 26.9012 5.03809 26.6277 5.03809H25.6121V11H24.1473V3.89062H26.6277C27.0412 3.89062 27.4106 3.92969 27.7361 4.00781C28.0649 4.08594 28.3432 4.20475 28.5711 4.36426C28.799 4.52376 28.9731 4.72559 29.0936 4.96973C29.214 5.21061 29.2742 5.49707 29.2742 5.8291C29.2742 6.12207 29.2075 6.39225 29.074 6.63965C28.9438 6.88704 28.7371 7.08887 28.4539 7.24512C28.174 7.40137 27.8078 7.48763 27.3553 7.50391L26.9305 7.87988ZM26.867 11H24.7039L25.2752 9.85742H26.867C27.1242 9.85742 27.3341 9.81673 27.4969 9.73535C27.6596 9.65072 27.7801 9.53678 27.8582 9.39355C27.9363 9.25033 27.9754 9.08594 27.9754 8.90039C27.9754 8.69206 27.9396 8.51139 27.868 8.3584C27.7996 8.2054 27.6889 8.08822 27.5359 8.00684C27.383 7.9222 27.1811 7.87988 26.9305 7.87988H25.5193L25.5291 6.87402H27.2869L27.6238 7.26953C28.0568 7.26302 28.4051 7.33952 28.6688 7.49902C28.9357 7.65527 29.1294 7.85872 29.2498 8.10938C29.3735 8.36003 29.4354 8.62858 29.4354 8.91504C29.4354 9.37077 29.3361 9.75488 29.1375 10.0674C28.9389 10.3766 28.6476 10.6094 28.2635 10.7656C27.8826 10.9219 27.4171 11 26.867 11ZM33.5711 9.73535V5.7168H34.9774V11H33.6541L33.5711 9.73535ZM33.7274 8.65137L34.1424 8.6416C34.1424 8.99316 34.1017 9.32031 34.0203 9.62305C33.9389 9.92253 33.8169 10.1829 33.6541 10.4043C33.4914 10.6224 33.2863 10.7933 33.0389 10.917C32.7915 11.0374 32.5001 11.0977 32.1649 11.0977C31.9077 11.0977 31.6701 11.0618 31.452 10.9902C31.2371 10.9154 31.0516 10.7998 30.8953 10.6436C30.7423 10.484 30.6219 10.2806 30.534 10.0332C30.4494 9.78255 30.407 9.48145 30.407 9.12988V5.7168H31.8133V9.13965C31.8133 9.2959 31.8312 9.42773 31.867 9.53516C31.9061 9.64258 31.9598 9.73047 32.0281 9.79883C32.0965 9.86719 32.1762 9.91602 32.2674 9.94531C32.3618 9.97461 32.466 9.98926 32.5799 9.98926C32.8696 9.98926 33.0975 9.93066 33.2635 9.81348C33.4328 9.69629 33.5516 9.53678 33.6199 9.33496C33.6915 9.12988 33.7274 8.90202 33.7274 8.65137ZM38.908 9.54004C38.908 9.43913 38.8787 9.34798 38.8201 9.2666C38.7615 9.18522 38.6525 9.11035 38.493 9.04199C38.3367 8.97038 38.1105 8.90527 37.8143 8.84668C37.5473 8.78809 37.2983 8.71484 37.0672 8.62695C36.8393 8.53581 36.6408 8.42676 36.4715 8.2998C36.3055 8.17285 36.1753 8.02311 36.0809 7.85059C35.9865 7.6748 35.9393 7.47461 35.9393 7.25C35.9393 7.02865 35.9865 6.82031 36.0809 6.625C36.1785 6.42969 36.3169 6.25716 36.4959 6.10742C36.6782 5.95443 36.8996 5.83561 37.16 5.75098C37.4236 5.66309 37.7199 5.61914 38.0486 5.61914C38.5076 5.61914 38.9015 5.69238 39.2303 5.83887C39.5623 5.98535 39.8162 6.18717 39.992 6.44434C40.171 6.69824 40.2606 6.98796 40.2606 7.31348H38.8543C38.8543 7.17676 38.825 7.05469 38.7664 6.94727C38.7111 6.83659 38.6232 6.75033 38.5027 6.68848C38.3856 6.62337 38.2326 6.59082 38.0438 6.59082C37.8875 6.59082 37.7524 6.61849 37.6385 6.67383C37.5246 6.72591 37.4367 6.79753 37.3748 6.88867C37.3162 6.97656 37.2869 7.07422 37.2869 7.18164C37.2869 7.26302 37.3032 7.33626 37.3358 7.40137C37.3716 7.46322 37.4285 7.52018 37.5067 7.57227C37.5848 7.62435 37.6857 7.67318 37.8094 7.71875C37.9363 7.76107 38.0926 7.80013 38.2781 7.83594C38.659 7.91406 38.9992 8.0166 39.2986 8.14355C39.5981 8.26725 39.8358 8.43652 40.0115 8.65137C40.1873 8.86296 40.2752 9.14128 40.2752 9.48633C40.2752 9.7207 40.2231 9.93555 40.119 10.1309C40.0148 10.3262 39.8651 10.4971 39.6697 10.6436C39.4744 10.7868 39.2401 10.8991 38.9666 10.9805C38.6964 11.0586 38.3921 11.0977 38.0535 11.0977C37.562 11.0977 37.1453 11.0098 36.8035 10.834C36.465 10.6582 36.2078 10.4352 36.032 10.165C35.8595 9.8916 35.7733 9.61165 35.7733 9.3252H37.1063C37.1128 9.51725 37.1616 9.67188 37.2527 9.78906C37.3471 9.90625 37.466 9.99089 37.6092 10.043C37.7557 10.0951 37.9136 10.1211 38.0828 10.1211C38.2651 10.1211 38.4165 10.0967 38.5369 10.0479C38.6574 9.99577 38.7485 9.92741 38.8104 9.84277C38.8755 9.75488 38.908 9.65397 38.908 9.54004ZM43.3709 9.99902C43.5434 9.99902 43.6964 9.96647 43.8299 9.90137C43.9634 9.83301 44.0675 9.73861 44.1424 9.61816C44.2205 9.49447 44.2612 9.34961 44.2645 9.18359H45.5877C45.5845 9.55469 45.4852 9.88509 45.2899 10.1748C45.0945 10.4613 44.8325 10.6875 44.5037 10.8535C44.1749 11.0163 43.8071 11.0977 43.4002 11.0977C42.9901 11.0977 42.632 11.0293 42.326 10.8926C42.0233 10.7559 41.771 10.5671 41.5692 10.3262C41.3673 10.082 41.216 9.79883 41.1151 9.47656C41.0141 9.15104 40.9637 8.80273 40.9637 8.43164V8.29004C40.9637 7.91569 41.0141 7.56738 41.1151 7.24512C41.216 6.9196 41.3673 6.63639 41.5692 6.39551C41.771 6.15137 42.0233 5.96094 42.326 5.82422C42.6287 5.6875 42.9835 5.61914 43.3904 5.61914C43.8234 5.61914 44.2026 5.70215 44.5281 5.86816C44.8569 6.03418 45.1141 6.27181 45.2996 6.58105C45.4884 6.88704 45.5845 7.25 45.5877 7.66992H44.2645C44.2612 7.49414 44.2238 7.33464 44.1522 7.19141C44.0838 7.04818 43.9829 6.93424 43.8494 6.84961C43.7192 6.76172 43.5581 6.71777 43.366 6.71777C43.1609 6.71777 42.9933 6.76172 42.8631 6.84961C42.7329 6.93424 42.632 7.05143 42.5604 7.20117C42.4887 7.34766 42.4383 7.5153 42.409 7.7041C42.383 7.88965 42.3699 8.08496 42.3699 8.29004V8.43164C42.3699 8.63672 42.383 8.83366 42.409 9.02246C42.435 9.21126 42.4839 9.37891 42.5555 9.52539C42.6304 9.67188 42.7329 9.78743 42.8631 9.87207C42.9933 9.95671 43.1626 9.99902 43.3709 9.99902ZM49.2547 9.80859V7.45508C49.2547 7.28581 49.227 7.14095 49.1717 7.02051C49.1164 6.89681 49.0301 6.80078 48.9129 6.73242C48.799 6.66406 48.6509 6.62988 48.4686 6.62988C48.3123 6.62988 48.1772 6.65755 48.0633 6.71289C47.9494 6.76497 47.8615 6.84147 47.7996 6.94238C47.7378 7.04004 47.7068 7.1556 47.7068 7.28906H46.3006C46.3006 7.06445 46.3527 6.85124 46.4568 6.64941C46.561 6.44759 46.7124 6.27018 46.9109 6.11719C47.1095 5.96094 47.3455 5.83887 47.619 5.75098C47.8957 5.66309 48.2049 5.61914 48.5467 5.61914C48.9568 5.61914 49.3214 5.6875 49.6404 5.82422C49.9595 5.96094 50.2101 6.16602 50.3924 6.43945C50.5779 6.71289 50.6707 7.05469 50.6707 7.46484V9.72559C50.6707 10.0153 50.6886 10.2529 50.7244 10.4385C50.7602 10.6208 50.8123 10.7803 50.8807 10.917V11H49.4598C49.3914 10.8568 49.3393 10.6777 49.3035 10.4629C49.271 10.2448 49.2547 10.0267 49.2547 9.80859ZM49.4402 7.78223L49.45 8.57812H48.6639C48.4783 8.57812 48.3172 8.59928 48.1805 8.6416C48.0438 8.68392 47.9315 8.74414 47.8436 8.82227C47.7557 8.89714 47.6906 8.98503 47.6483 9.08594C47.6092 9.18685 47.5897 9.29753 47.5897 9.41797C47.5897 9.53841 47.6173 9.64746 47.6727 9.74512C47.728 9.83952 47.8078 9.91439 47.9119 9.96973C48.0161 10.0218 48.1382 10.0479 48.2781 10.0479C48.4897 10.0479 48.6736 10.0055 48.8299 9.9209C48.9861 9.83626 49.1066 9.7321 49.1912 9.6084C49.2791 9.4847 49.3247 9.36751 49.3279 9.25684L49.699 9.85254C49.647 9.986 49.5753 10.1243 49.4842 10.2676C49.3963 10.4108 49.284 10.5459 49.1473 10.6729C49.0106 10.7965 48.8462 10.8991 48.6541 10.9805C48.4621 11.0586 48.2342 11.0977 47.9705 11.0977C47.6352 11.0977 47.3309 11.0309 47.0574 10.8975C46.7873 10.7607 46.5724 10.5736 46.4129 10.3359C46.2567 10.0951 46.1785 9.82161 46.1785 9.51562C46.1785 9.23893 46.2306 8.99316 46.3348 8.77832C46.4389 8.56348 46.5919 8.38281 46.7938 8.23633C46.9988 8.08659 47.2544 7.97428 47.5604 7.89941C47.8664 7.82129 48.2212 7.78223 48.6248 7.78223H49.4402Z" fill="#827C7B"/>
<defs>
<clipPath id="clip0_162_36">
<rect width="11" height="11" fill="white" transform="translate(6.02499 2)"/>
</clipPath>
</defs>
</svg>
